<?xml version="1.0" encoding="utf-8"?>
<!-- Generator: Adobe Illustrator 21.1.0, SVG Export Plug-In . SVG Version: 6.00 Build 0)  -->
<svg version="1.1" id="Logo" xmlns="http://www.w3.org/2000/svg" xmlns:xlink="http://www.w3.org/1999/xlink" x="0px" y="0px"
	 viewBox="0 0 330.7 70.6" style="enable-background:new 0 0 330.7 70.6;" xml:space="preserve">
<style type="text/css">
	.st0{fill:#FFFFFF;}
	.st1{clip-path:url(#XMLID_3_);}
	.st2{fill:none;stroke:#FFFFFF;stroke-width:1.6538;stroke-miterlimit:10;}
</style>
<g id="Fonts">
</g>
<g>
	<g>
		<g>
			<path class="st0" d="M97.1,0.4h30.3v7.3h-10.7v31.7h-8.4V7.7H97.1V0.4z"/>
			<path class="st0" d="M144.1,20.9h-0.3c-1.3-0.2-2.4-0.3-3.5-0.3c-3,0-5,1-5,3.4v15.4h-8.1V13.3h6.9l0.4,3.4l0.1,0.1
				c0.9-2.2,3.7-4.1,6.7-4.1c0.7,0,1.5,0.1,2.2,0.4L144.1,20.9z"/>
			<path class="st0" d="M147.8,14c2.3-0.7,6.5-1.4,9.9-1.4c6.9,0,10.7,2.3,10.7,10.1v8.9c0,1.7,0.3,2.2,1.2,2.2
				c0.5,0,1.2-0.1,1.7-0.3l-0.3,5.7c-0.8,0.3-2.3,0.8-4.4,0.8c-2.7,0-4.7-1.3-5.3-3.6c-1.4,2.2-4.1,3.6-8.1,3.6
				c-6.1,0-8.4-3.6-8.4-7.8c0-6.3,4.7-8.1,10.4-8.4l5-0.3v-1.3c0-2.9-1.7-3.2-4.3-3.2c-2.6,0-5.8,0.8-8.4,1.5h-0.3L147.8,14z
				 M160.5,30.5v-2.4l-3.3,0.2c-2.3,0.1-4.1,0.9-4.1,3.2c0,1.6,0.7,2.8,3.2,2.8C158.9,34.3,160.5,32.8,160.5,30.5z"/>
			<path class="st0" d="M179.2,0c3.1,0,4.8,1.5,4.8,4.3c0,2.8-1.7,4.3-4.8,4.3c-2.9,0-4.7-1.6-4.7-4.3C174.6,1.5,176.4,0,179.2,0z
				 M183.4,13.3v26.1h-8.1V13.3H183.4z"/>
			<path class="st0" d="M186.8,0.4h11.1v38.9h-8.1V6.2h-3V0.4z"/>
			<path class="st0" d="M215.6,39.4V0.4h14.2c11.8,0,14.9,5,14.9,12.3c0,5.3-2.6,9.1-6.9,11.2l8.2,15.4h-9l-6.7-13.6H224v13.6H215.6
				z M229.1,19.3c4.1,0,7-1.9,7-6.4c0-4.4-2.3-5.7-6.1-5.7h-6v12.2H229.1z"/>
			<path class="st0" d="M250.4,30V13.3h8.1v15.6c0,3.1,0.9,4.6,3.7,4.6c3.6,0,4.4-2.3,4.4-4.7V13.3h8.1v26.1h-7.3l-0.3-2.9H267
				c-1.2,1.9-3.5,3.5-7.5,3.5C252.9,40,250.4,36.2,250.4,30z"/>
			<path class="st0" d="M279.7,31.7h0.2c2.5,1,6.1,2.1,9.3,2.1c3.2,0,4.2-0.6,4.2-1.8c0-3.6-13.7-0.6-13.7-10.4
				c0-5.8,4.8-8.9,11.5-8.9c2.5,0,6.3,0.6,8.3,1.4l0.6,6.5h-0.3c-2.5-0.9-5.8-1.6-8-1.6c-2.5,0-4.1,0.5-4.1,1.9
				c0,3.8,13.3,0.6,13.3,10.4c0,5.4-4,8.8-11.7,8.8c-3.8,0-7.6-1-9.2-1.8L279.7,31.7z"/>
			<path class="st0" d="M330.7,22.7v16.6h-8.1V23.8c0-3.1-1-4.5-3.8-4.5c-2.9,0-4.9,1.5-4.9,4.7v15.5h-8.1V0.4h8.1v15.3l0.1,0.1
				c1.3-1.8,3.6-3.2,7.3-3.2C328.3,12.6,330.7,16.8,330.7,22.7z"/>
		</g>
		<g>
			<path class="st0" d="M158,60.9c0-5.9,3-10.3,9.2-10.3c6.2,0,8.6,4.5,8.6,9.7c0,5.5-2.5,10.3-9,10.3C160.3,70.6,158,65.8,158,60.9
				z M171.6,60.4c0-3.9-1.1-6.4-4.6-6.4c-3.1,0-4.9,2.3-4.9,6.7c0,4.4,1.7,6.5,4.7,6.5C170,67.1,171.6,64.8,171.6,60.4z"/>
			<path class="st0" d="M178.4,65.6v-8.3h4V65c0,1.5,0.4,2.3,1.9,2.3c1.8,0,2.2-1.1,2.2-2.3v-7.7h4v13h-3.6l-0.1-1.4h-0.1
				c-0.6,1-1.7,1.7-3.7,1.7C179.6,70.6,178.4,68.7,178.4,65.6z"/>
			<path class="st0" d="M198.3,60.1v5.5c0,1.5,0.5,1.8,1.6,1.8c0.6,0,1.4-0.2,2-0.4h0.1l-0.4,3.1c-0.7,0.3-2.2,0.5-3.1,0.5
				c-2.8,0-4.2-1.3-4.2-4.3v-6.1h-2.1v-2.9h2.1v-3l4-0.9v3.9h3.1l0.2,2.9H198.3z"/>
			<path class="st0" d="M216,70.2h-3.5l-0.2-1.5h-0.1c-0.5,0.9-1.8,1.8-3.6,1.8c-3.1,0-5.5-1.8-5.5-6.6c0-4.3,2.4-7,5.9-7
				c1,0,2.1,0.2,2.9,0.8v-6.9h4V70.2z M212,60.8c-0.5-0.4-1.1-0.6-2-0.6c-1.6,0-2.7,1-2.7,3.8c0,2.4,0.9,3.6,2.5,3.6
				c1.4,0,2.2-0.8,2.2-2.2V60.8z"/>
			<path class="st0" d="M218.4,63.9c0-4.2,2.5-7,7.1-7c4.7,0,6.5,3,6.5,6.6c0,4.2-2.3,7.1-6.9,7.1C220.3,70.6,218.4,67.6,218.4,63.9
				z M227.8,63.7c0-2.1-0.6-3.6-2.5-3.6c-1.9,0-2.7,1.3-2.7,3.6s0.8,3.7,2.6,3.7C227.1,67.4,227.8,66.1,227.8,63.7z"/>
			<path class="st0" d="M233.7,63.9c0-4.2,2.5-7,7.1-7c4.7,0,6.5,3,6.5,6.6c0,4.2-2.3,7.1-6.9,7.1C235.6,70.6,233.7,67.6,233.7,63.9
				z M243,63.7c0-2.1-0.6-3.6-2.5-3.6c-1.9,0-2.7,1.3-2.7,3.6s0.8,3.7,2.6,3.7C242.3,67.4,243,66.1,243,63.7z"/>
			<path class="st0" d="M258,61.1h-0.1c-0.6-0.1-1.2-0.2-1.7-0.2c-1.5,0-2.5,0.5-2.5,1.7v7.6h-4v-13h3.4l0.2,1.7l0.1,0
				c0.5-1.1,1.8-2,3.3-2c0.4,0,0.7,0.1,1.1,0.2L258,61.1z"/>
			<path class="st0" d="M259.3,66.4h0.1c1.2,0.5,3,1,4.6,1c1.6,0,2.1-0.3,2.1-0.9c0-1.8-6.8-0.3-6.8-5.2c0-2.9,2.4-4.4,5.7-4.4
				c1.3,0,3.1,0.3,4.1,0.7l0.3,3.2h-0.1c-1.3-0.5-2.9-0.8-4-0.8c-1.2,0-2,0.2-2,1c0,1.9,6.6,0.3,6.6,5.2c0,2.7-2,4.4-5.8,4.4
				c-1.9,0-3.8-0.5-4.6-0.9L259.3,66.4z"/>
		</g>
	</g>
	<g id="Symbol_1_">
		<g>
			<defs>
				<rect id="XMLID_2_" y="0.4" width="70.1" height="70.1"/>
			</defs>
			<use xlink:href="#XMLID_2_"  style="overflow:visible;fill:#F2911B;"/>
			<clipPath id="XMLID_3_">
				<use xlink:href="#XMLID_2_"  style="overflow:visible;"/>
			</clipPath>
			<g class="st1">
				
					<ellipse transform="matrix(0.9848 -0.1736 0.1736 0.9848 -8.3796 1.3091)" class="st2" cx="3.3" cy="48.5" rx="15.4" ry="15.1"/>
				
					<ellipse transform="matrix(0.9848 -0.1736 0.1736 0.9848 -5.4689 12.1719)" class="st2" cx="66.8" cy="37.3" rx="15.4" ry="15.1"/>
				<polygon class="st2" points="49.6,13.8 16.3,28.4 24.1,45.6 52.5,20.2 				"/>
				<polyline class="st2" points="48.5,11.3 46.7,7.4 40.1,8.5 				"/>
				<path class="st2" d="M46.7,7.4"/>
				<polyline class="st2" points="15.2,26 13.4,22.1 8.5,23 				"/>
				<path class="st2" d="M16.3,28.4"/>
			</g>
		</g>
	</g>
</g>
</svg>
